<svg width="620" height="28" viewBox="0 0 620 28" fill="none" xmlns="http://www.w3.org/2000/svg"><path fill-rule="evenodd" clip-rule="evenodd" d="M561.689 14.8175C561.828 14.5766 561.95 14.3509 562.086 14.1334C564.403 10.4161 566.724 6.70066 569.04 2.98264C569.53 2.19549 570.05 1.42074 570.238 0.472237H575.758C575.661 0.921977 575.517 1.35674 575.48 1.80022C575.38 3.02826 575.265 4.25983 575.262 5.49032C575.245 11.5398 575.257 17.5896 575.271 23.6393C575.274 24.8301 575.389 26.0127 575.736 27.1616C575.755 27.223 575.754 27.2906 575.763 27.3657H570.446C570.558 26.8223 570.723 26.2984 570.765 25.7647C570.863 24.5355 570.948 23.3017 570.955 22.0693C570.983 17.4812 570.975 12.8929 570.986 8.30478C570.987 7.92121 571.027 7.53764 571.044 7.23972C567.881 12.2878 564.68 17.3963 561.436 22.5739C558.206 17.4631 555.019 12.4201 551.862 7.42341C551.882 7.82072 551.927 8.30015 551.928 8.77984C551.937 13.232 551.918 17.6845 551.953 22.1366C551.963 23.4802 552.1 24.824 552.21 26.165C552.243 26.5643 552.382 26.9548 552.476 27.3663H547.148C547.249 26.8847 547.384 26.4108 547.443 25.9277C547.537 25.1536 547.636 24.3736 547.638 23.5958C547.654 17.1382 547.652 10.6808 547.643 4.22321C547.641 2.99898 547.526 1.78238 547.159 0.603088C547.147 0.563056 547.142 0.520438 547.129 0.452766H547.587C549.208 0.452766 550.83 0.456578 552.451 0.448257C552.667 0.447183 552.796 0.504371 552.916 0.695677C555.46 4.75206 558.015 8.80163 560.559 12.8583C560.954 13.4873 561.303 14.145 561.689 14.8175Z" fill="#1A1919"/><path fill-rule="evenodd" clip-rule="evenodd" d="M598.927 22.5155C598.681 24.1711 598.446 25.7567 598.207 27.36H581.297C581.428 26.4508 581.592 25.5406 581.681 24.623C581.752 23.8922 581.752 23.1526 581.752 22.4169C581.753 16.4582 581.748 10.4995 581.74 4.54084C581.739 3.16875 581.639 1.80673 581.208 0.468262H597.751V5.05131C597.211 4.88193 596.692 4.69648 596.16 4.55623C594.805 4.19894 593.421 4.05829 592.021 4.05529C590.343 4.05162 588.665 4.04917 586.987 4.04753C586.91 4.04753 586.832 4.06033 586.732 4.06918V11.13H595.517V15.3525C592.626 14.5279 589.687 14.6977 586.734 14.6776V23.7085C586.832 23.7179 586.919 23.7337 587.007 23.7335C589.025 23.7277 591.043 23.7409 593.061 23.7073C594.978 23.6755 596.839 23.3173 598.63 22.6194C598.702 22.5913 598.776 22.5683 598.927 22.5155Z" fill="#1A1919"/><path fill-rule="evenodd" clip-rule="evenodd" d="M618.614 6.13201C617.655 5.61528 616.718 5.04353 615.727 4.59202C614.096 3.84913 612.382 3.44201 610.575 3.73856C609.393 3.93232 608.388 4.43081 607.874 5.59866C607.305 6.89247 607.689 8.36451 608.834 9.37768C609.678 10.124 610.688 10.5868 611.693 11.0587C613.106 11.7217 614.546 12.3344 615.92 13.0698C617.424 13.8748 618.655 14.9952 619.377 16.5975C619.962 17.8978 620.101 19.2643 619.935 20.6513C619.496 24.3217 617.237 26.388 613.816 27.3025C610.892 28.0842 607.971 27.8451 605.108 26.9413C604.261 26.6741 603.463 26.2535 602.65 25.8866C602.55 25.8413 602.432 25.6939 602.431 25.5929C602.417 23.9862 602.421 22.3793 602.421 20.7014C602.674 20.8977 602.878 21.0641 603.09 21.2199C605.184 22.7584 607.496 23.7631 610.095 24.0329C611.024 24.1294 611.953 24.0742 612.843 23.7337C614.405 23.1361 615.021 21.7754 614.902 20.3122C614.769 18.6812 613.778 17.6137 612.441 16.8704C611.128 16.1407 609.751 15.5254 608.394 14.8755C607.249 14.3267 606.118 13.7584 605.121 12.9579C603.248 11.4546 602.459 9.49247 602.66 7.12081C602.908 4.18272 604.537 2.25209 607.152 1.07157C609.058 0.210899 611.077 -0.0623769 613.151 0.0183667C614.918 0.0871281 616.635 0.400163 618.269 1.10507C618.535 1.21972 618.638 1.35751 618.634 1.65598C618.617 3.06062 618.627 4.46539 618.626 5.87017C618.626 5.97842 618.616 6.08667 618.614 6.13201Z" fill="#1A1919"/><path fill-rule="evenodd" clip-rule="evenodd" d="M535.68 0.466309H541.72C541.122 2.45494 541.183 4.48511 541.182 6.50887C541.179 11.469 541.18 16.4289 541.182 21.3888C541.183 23.39 541.13 25.3969 541.725 27.3644H535.723C535.844 26.6877 536.012 26.0163 536.073 25.3355C536.162 24.3333 536.21 23.3244 536.212 22.3183C536.224 16.7015 536.219 11.0847 536.217 5.46792C536.216 4.02924 536.187 2.59165 535.869 1.1783C535.817 0.948183 535.748 0.722019 535.68 0.466309Z" fill="#1A1919"/><path fill-rule="evenodd" clip-rule="evenodd" d="M456.043 22.5162C455.803 24.1529 455.569 25.7487 455.333 27.3603H438.336C438.953 25.3194 438.875 23.2311 438.876 21.151C438.879 15.6794 438.88 10.2078 438.867 4.7363C438.864 3.30879 438.781 1.88481 438.336 0.479492H454.867V5.05097C454.329 4.88145 453.819 4.69859 453.297 4.56079C451.942 4.20282 450.558 4.05944 449.158 4.05631C447.468 4.05264 445.779 4.05019 444.089 4.04814C444.022 4.04814 443.955 4.05795 443.865 4.06489V11.1228H452.614V15.345C449.746 14.5298 446.817 14.6972 443.871 14.6769V23.7007C443.933 23.7104 444.007 23.7319 444.082 23.7316C446.157 23.7251 448.232 23.7411 450.307 23.7007C452.177 23.6642 453.994 23.3039 455.741 22.6208C455.823 22.5887 455.908 22.5628 456.043 22.5162Z" fill="#1A1919"/><path fill-rule="evenodd" clip-rule="evenodd" d="M480.191 20.8096C481.118 21.3869 482.006 22.0171 482.962 22.5208C484.838 23.5096 486.828 24.1364 488.982 24.0501C490.099 24.0053 491.141 23.7214 491.914 22.8417C493.002 21.6037 492.931 19.5011 491.774 18.1523C490.926 17.1636 489.8 16.58 488.657 16.0201C487.072 15.2446 485.459 14.5206 483.918 13.6667C482.514 12.8886 481.393 11.7737 480.829 10.2217C479.75 7.25504 480.549 3.44211 484.097 1.47799C486.137 0.34921 488.348 -0.0369437 490.647 0.0107127C492.518 0.0493825 494.339 0.362281 496.068 1.12274C496.312 1.23004 496.402 1.35571 496.399 1.6264C496.386 3.14324 496.393 4.66035 496.393 6.23968C496.273 6.16166 496.194 6.11346 496.119 6.06063C494.37 4.83259 492.472 3.96497 490.332 3.70218C489.402 3.58794 488.48 3.63247 487.576 3.92453C485.016 4.75171 484.858 7.61736 486.31 9.09907C486.939 9.7408 487.683 10.2115 488.485 10.5896C489.723 11.1738 490.997 11.685 492.216 12.304C493.181 12.7938 494.144 13.324 495.009 13.9683C496.934 15.4025 497.793 17.3863 497.751 19.7763C497.687 23.4895 495.568 26.1972 491.838 27.2377C488.824 28.0783 485.821 27.8659 482.866 26.9377C482.019 26.6719 481.22 26.2518 480.41 25.8792C480.302 25.8295 480.194 25.6428 480.193 25.5185C480.178 23.9781 480.183 22.4374 480.184 20.8969C480.184 20.8537 480.191 20.8106 480.191 20.8096Z" fill="#1A1919"/><path fill-rule="evenodd" clip-rule="evenodd" d="M459.567 20.7482C460.096 21.123 460.585 21.5033 461.106 21.8339C462.966 23.0146 464.973 23.8252 467.182 24.0178C467.916 24.0818 468.687 24.0415 469.408 23.8875C471.331 23.4761 472.332 21.8826 471.979 19.9405C471.796 18.934 471.255 18.1494 470.481 17.5076C469.44 16.6439 468.204 16.1263 467.002 15.5445C465.74 14.9336 464.466 14.3384 463.245 13.6519C462.075 12.9938 461.105 12.084 460.476 10.8711C459.096 8.21142 459.557 4.18513 462.65 1.99212C463.988 1.04335 465.485 0.50088 467.091 0.229647C469.782 -0.225132 472.416 -0.0128565 474.98 0.941634C475.762 1.23288 475.757 1.24759 475.757 2.08798V5.86005V6.24784C475.614 6.15239 475.515 6.08812 475.418 6.02045C473.684 4.81175 471.802 3.9606 469.686 3.70149C468.756 3.58766 467.834 3.63191 466.93 3.92547C464.373 4.75606 464.227 7.60223 465.646 9.07945C466.261 9.71873 466.995 10.187 467.786 10.5614C469.043 11.1574 470.32 11.7127 471.584 12.2948C472.73 12.8224 473.82 13.4434 474.773 14.2816C476.165 15.5075 476.936 17.057 477.083 18.8968C477.255 21.0411 476.798 23.0175 475.365 24.691C474.187 26.0656 472.659 26.8722 470.932 27.3106C468.162 28.014 465.399 27.8633 462.677 27.0714C461.717 26.792 460.809 26.3352 459.877 25.9585C459.628 25.8581 459.541 25.6879 459.544 25.4064C459.561 23.968 459.551 22.5293 459.552 21.0906C459.552 20.9824 459.561 20.8741 459.567 20.7482Z" fill="#1A1919"/><path fill-rule="evenodd" clip-rule="evenodd" d="M523.672 27.3675H517.591C517.687 26.9247 517.829 26.5017 517.864 26.07C517.968 24.7854 518.092 23.4977 518.098 22.2107C518.122 16.2869 518.108 10.3629 518.108 4.43892V4.06134C515.22 4.02104 512.356 3.94002 509.6 5.08772V0.481934H531.608V5.07724C528.878 3.94465 526.016 4.02049 523.14 4.05957C523.13 4.15597 523.114 4.23195 523.114 4.30779C523.117 10.6396 523.113 16.9712 523.13 23.3028C523.133 24.6609 523.224 26.0167 523.672 27.3675Z" fill="#1A1919"/><path fill-rule="evenodd" clip-rule="evenodd" d="M427.618 0.483665H432.915C432.268 2.58749 432.372 4.73271 432.371 6.86745C432.366 13.5591 432.369 20.2506 432.369 26.9423V27.3614C432.241 27.369 432.142 27.3797 432.043 27.38C431.261 27.3814 430.475 27.336 429.697 27.395C429.078 27.4418 428.705 27.221 428.324 26.7373C423.954 21.1848 419.555 15.6548 415.176 10.11C414.742 9.5614 414.382 8.95507 413.988 8.37571C413.939 8.30422 413.889 8.23396 413.903 8.17678C413.91 11.5479 413.911 14.9189 413.927 18.2899C413.937 20.4291 413.937 22.5694 414.011 24.7068C414.042 25.5906 414.255 26.468 414.387 27.3605H409.167C409.281 26.7911 409.447 26.2333 409.494 25.6655C409.59 24.5164 409.669 23.362 409.672 22.2096C409.689 16.2427 409.682 10.2757 409.671 4.30884C409.671 4.1027 409.586 3.86387 409.464 3.69598C408.691 2.63556 407.897 1.59079 407.076 0.49483C407.213 0.482304 407.305 0.466509 407.397 0.466373C409.336 0.465011 411.274 0.470321 413.213 0.459002C413.46 0.457522 413.6 0.549567 413.745 0.732568C417.402 5.37553 421.076 10.0062 424.721 14.6591C425.865 16.1188 426.934 17.6369 428.037 19.1274C428.055 19.1507 428.084 19.1651 428.144 19.2117C428.144 19.057 428.144 18.9386 428.143 18.8201C428.124 14.8464 428.108 10.8726 428.082 6.89904C428.073 5.59761 428.076 4.29387 427.995 2.99611C427.943 2.15654 427.749 1.32582 427.618 0.483665Z" fill="#1A1919"/><path fill-rule="evenodd" clip-rule="evenodd" d="M365.949 0.477051H371.148C371.028 1.1486 370.859 1.80694 370.802 2.47494C370.714 3.52257 370.667 4.57646 370.662 5.62803C370.645 9.43279 370.669 13.2379 370.646 17.0427C370.635 18.7491 370.365 20.4225 369.731 22.0191C368.66 24.7158 366.72 26.4862 363.922 27.2357C360.999 28.0185 358.063 27.9858 355.191 26.9811C352.414 26.0099 350.779 23.962 349.982 21.193C349.547 19.6826 349.375 18.1319 349.37 16.566C349.356 12.6591 349.367 8.75225 349.355 4.84538C349.35 3.38423 349.273 1.92703 348.823 0.489578H354.811C354.693 1.17175 354.533 1.85391 354.467 2.54507C354.381 3.44523 354.337 4.35234 354.333 5.25658C354.32 8.90285 354.32 12.5494 354.335 16.1956C354.34 17.4426 354.46 18.681 354.804 19.8893C355.483 22.2791 357.207 23.675 359.688 23.8679C360.646 23.9424 361.594 23.9273 362.525 23.6931C364.325 23.2404 365.418 22.0563 365.964 20.3185C366.389 18.9622 366.479 17.5601 366.487 16.1571C366.508 12.3863 366.502 8.61527 366.486 4.84429C366.48 3.3845 366.406 1.92635 365.949 0.477051Z" fill="#1A1919"/><path fill-rule="evenodd" clip-rule="evenodd" d="M375.54 20.6921C376.731 21.7019 377.98 22.4475 379.333 23.0172C380.934 23.6916 382.589 24.1385 384.345 24.0525C385.473 23.9973 386.527 23.7126 387.291 22.8052C388.329 21.5746 388.266 19.5665 387.171 18.2184C386.445 17.325 385.478 16.7544 384.47 16.2582C383.272 15.669 382.049 15.131 380.843 14.5579C379.807 14.0654 378.822 13.4877 377.953 12.7286C376.413 11.3831 375.697 9.67778 375.745 7.6483C375.819 4.48772 377.436 2.36619 380.25 1.08805C382.153 0.223559 384.173 -0.0503978 386.248 0.0299374C388.038 0.0992434 389.776 0.413776 391.428 1.14006C391.673 1.24736 391.756 1.37507 391.754 1.64427C391.739 3.16069 391.747 4.67726 391.747 6.26558C391.617 6.17585 391.53 6.11703 391.444 6.05684C389.705 4.8367 387.816 3.97657 385.688 3.7131C384.759 3.59804 383.837 3.64134 382.932 3.93164C380.351 4.75909 380.214 7.63019 381.649 9.10223C382.267 9.73674 383.002 10.2042 383.792 10.5779C385.05 11.173 386.327 11.7261 387.59 12.3092C388.735 12.8379 389.825 13.4607 390.776 14.3006C392.186 15.5469 392.949 17.1244 393.08 18.9879C393.237 21.224 392.708 23.2556 391.135 24.934C389.865 26.2893 388.261 27.0642 386.474 27.4199C382.922 28.1272 379.494 27.6888 376.204 26.1551C375.697 25.9191 375.499 25.6295 375.523 25.0494C375.577 23.7495 375.54 22.4458 375.54 21.1436V20.6921Z" fill="#1A1919"/><path fill-rule="evenodd" clip-rule="evenodd" d="M397.242 0.48291H403.267C403.168 0.913588 403.022 1.33242 402.985 1.76051C402.88 2.96472 402.758 4.17274 402.755 5.37954C402.737 11.4134 402.753 17.4475 402.764 23.4815C402.767 24.785 402.883 26.077 403.298 27.3561H397.253C397.347 26.9486 397.488 26.5496 397.523 26.1415C397.634 24.8471 397.773 23.5496 397.78 22.2526C397.808 16.6828 397.799 11.1127 397.787 5.54294C397.784 4.05061 397.768 2.5546 397.401 1.09155C397.353 0.896023 397.3 0.701449 397.242 0.48291Z" fill="#1A1919"/><path fill-rule="evenodd" clip-rule="evenodd" d="M330.608 11.4381C331.103 11.4381 331.555 11.4384 332.007 11.4381C333.162 11.4374 334.319 11.4325 335.449 11.1512C336.541 10.8797 337.456 10.3631 337.866 9.23841C338.188 8.35527 338.227 7.44339 337.985 6.53683C337.65 5.27857 336.715 4.66339 335.524 4.36969C333.925 3.97523 332.293 4.00369 330.663 4.03664C330.646 4.03691 330.629 4.0621 330.608 4.07939V11.4381ZM330.609 23.7581C331.944 23.7581 333.236 23.7906 334.525 23.7449C335.198 23.7209 335.878 23.6104 336.533 23.4496C337.897 23.1146 338.971 22.3774 339.369 20.9596C339.54 20.3494 339.61 19.6886 339.596 19.0537C339.552 17.0136 338.505 15.7671 336.527 15.301C334.596 14.8459 332.632 14.9719 330.675 14.9727C330.656 14.9727 330.638 14.9934 330.609 15.0107V23.7581ZM325.168 27.3894C325.301 26.5012 325.468 25.6475 325.547 24.7857C325.625 23.919 325.639 23.0445 325.641 22.1733C325.648 16.669 325.651 11.1647 325.64 5.66036C325.637 4.14543 325.644 2.62519 325.269 1.13885C325.217 0.931754 325.16 0.726014 325.093 0.475613C325.228 0.475613 325.337 0.475613 325.446 0.475613C328.019 0.47643 330.593 0.469078 333.167 0.48106C334.937 0.489366 336.711 0.542196 338.421 1.04341C339.173 1.26371 339.911 1.5856 340.594 1.96944C341.639 2.55643 342.327 3.48873 342.715 4.61655C343.203 6.03535 343.326 7.4965 343 8.96459C342.589 10.8167 341.386 12.001 339.673 12.7199C339.573 12.762 339.475 12.8071 339.376 12.8501C340.015 13.0701 340.657 13.2405 341.256 13.5076C343.228 14.3871 344.346 15.9158 344.6 18.063C344.794 19.7084 344.665 21.3219 344.014 22.859C343.185 24.8151 341.641 25.98 339.677 26.6453C338.027 27.2041 336.312 27.3701 334.587 27.3857C331.492 27.4139 328.396 27.3952 325.301 27.3958C325.245 27.3958 325.19 27.3905 325.168 27.3894Z" fill="#1A1919"/><path fill-rule="evenodd" clip-rule="evenodd" d="M276.732 5.84392C275.388 9.56656 274.053 13.2674 272.709 16.9928H280.849C279.475 13.2723 278.111 9.57773 276.732 5.84392ZM269.545 27.383H263.714C263.722 27.3377 263.717 27.2998 263.733 27.2773C265.058 25.4592 265.956 23.4215 266.772 21.3452C268.985 15.7183 271.197 10.0912 273.379 4.45262C273.732 3.54116 273.958 2.577 274.189 1.62428C274.274 1.27475 274.203 0.887374 274.203 0.47535C274.302 0.47535 274.423 0.47535 274.545 0.47535C275.985 0.47535 277.425 0.482022 278.865 0.469297C279.129 0.466908 279.255 0.536895 279.36 0.795192C282.157 7.68577 284.96 14.5746 287.778 21.4571C288.609 23.4859 289.525 25.4766 290.718 27.3705H284.046C284.01 26.9791 283.985 26.5771 283.934 26.1785C283.729 24.6049 283.13 23.147 282.592 21.6718C282.538 21.5233 282.475 21.3779 282.42 21.2296C282.181 20.5875 282.182 20.5872 281.484 20.5872C278.252 20.5872 275.021 20.5905 271.79 20.5815C271.514 20.5806 271.381 20.6515 271.282 20.9266C270.686 22.5853 270.027 24.2243 269.723 25.9718C269.643 26.4266 269.606 26.8886 269.545 27.383Z" fill="#1A1919"/><path fill-rule="evenodd" clip-rule="evenodd" d="M294.128 0.491699H300.158C300.066 0.906446 299.93 1.30376 299.895 1.70993C299.785 2.97106 299.644 4.23504 299.638 5.49862C299.611 11.4562 299.626 17.414 299.626 23.3716C299.626 23.4824 299.636 23.5931 299.641 23.7203C299.734 23.732 299.809 23.7499 299.885 23.7497C301.767 23.743 303.65 23.7578 305.531 23.7194C307.436 23.6804 309.286 23.3212 311.063 22.6175C311.136 22.5886 311.212 22.5666 311.319 22.5301C311.093 24.161 310.871 25.7689 310.647 27.384H294.161C294.28 26.7908 294.448 26.2122 294.501 25.623C294.594 24.5645 294.662 23.4998 294.664 22.4375C294.674 16.4119 294.663 10.3864 294.654 4.36072C294.652 3.05657 294.531 1.76481 294.128 0.491699Z" fill="#1A1919"/><path fill-rule="evenodd" clip-rule="evenodd" d="M241.727 27.4039H236.437C236.555 26.7551 236.709 26.1176 236.779 25.4712C236.863 24.6848 236.913 23.8909 236.915 23.1001C236.927 16.8267 236.925 10.5534 236.917 4.28004C236.917 4.10493 236.846 3.90151 236.742 3.75949C235.96 2.69117 235.162 1.63483 234.335 0.529066C234.469 0.516947 234.561 0.501289 234.652 0.501152C236.603 0.499791 238.553 0.506054 240.503 0.492693C240.749 0.491076 240.871 0.603954 241.001 0.768982C244.037 4.61976 247.076 8.46795 250.112 12.3189C251.486 14.0619 252.862 15.8034 254.22 17.5593C254.63 18.0907 254.981 18.6683 255.397 19.28C255.404 19.1784 255.41 19.1396 255.41 19.1008C255.387 14.4472 255.368 9.79361 255.338 5.14017C255.332 4.35983 255.313 3.57595 255.233 2.80064C255.154 2.04086 254.991 1.2898 254.863 0.520487H260.134C260.034 1.01108 259.896 1.49717 259.843 1.99225C259.747 2.89078 259.647 3.79462 259.645 4.69642C259.628 12.1022 259.633 19.5079 259.632 26.9137C259.632 27.0605 259.632 27.2074 259.632 27.3901C259.525 27.399 259.429 27.4138 259.333 27.4141C258.346 27.4157 257.36 27.4232 256.374 27.4061C256.231 27.4036 256.044 27.3174 255.956 27.2073C251.412 21.4885 246.873 15.7654 242.344 10.0341C241.891 9.4607 241.507 8.8334 241.072 8.20407C241.092 8.4497 241.126 8.67696 241.128 8.90462C241.151 11.1348 241.176 13.3651 241.186 15.5954C241.195 17.6562 241.186 19.7173 241.189 21.7783C241.191 23.6558 241.144 25.5385 241.727 27.4039Z" fill="#1A1919"/><path fill-rule="evenodd" clip-rule="evenodd" d="M208.057 13.3507C208.058 14.4649 208.185 15.5624 208.474 16.6397C209.569 20.7222 212.62 23.4132 216.54 23.8585C220.352 24.2917 223.798 22.383 225.301 18.8721C226.507 16.0541 226.458 13.1781 225.472 10.3248C224.099 6.34726 220.801 3.94864 216.72 3.90071C213.842 3.86695 211.489 4.95501 209.808 7.32599C208.534 9.12386 208.063 11.175 208.057 13.3507ZM231.383 13.5864C231.286 16.557 230.607 19.3361 228.938 21.8182C227.041 24.6407 224.388 26.4252 221.108 27.2405C217.384 28.166 213.706 28.0109 210.176 26.4069C206.635 24.7981 204.377 22.0543 203.402 18.3078C202.488 14.791 202.711 11.3171 204.22 7.99467C205.951 4.18393 208.939 1.77837 212.945 0.663753C216.244 -0.254519 219.564 -0.224972 222.808 0.922051C227.306 2.51214 229.994 5.72745 230.976 10.3616C231.2 11.4179 231.252 12.5105 231.383 13.5864Z" fill="#1A1919"/><path fill-rule="evenodd" clip-rule="evenodd" d="M174.664 4.05446C173.179 4.09627 171.751 4.11152 170.327 4.18341C168.906 4.25503 167.532 4.58563 166.174 5.1153V0.527344H188.174V5.11271C186.816 4.59666 185.427 4.25054 183.988 4.1815C182.565 4.11342 181.14 4.09667 179.696 4.05692C179.683 4.22303 179.668 4.32107 179.669 4.4191C179.677 10.952 179.682 17.4851 179.703 24.018C179.706 25.1507 179.869 26.2697 180.217 27.3883H174.154C174.259 26.8698 174.396 26.3496 174.465 25.8207C174.556 25.1265 174.644 24.4257 174.646 23.7275C174.663 17.2963 174.661 10.8651 174.664 4.43395C174.664 4.33482 174.664 4.23583 174.664 4.05446Z" fill="#1A1919"/><path fill-rule="evenodd" clip-rule="evenodd" d="M192.221 0.513672H198.212C198.091 1.24377 197.929 1.9612 197.863 2.68735C197.777 3.62114 197.734 4.56175 197.732 5.49949C197.721 11.125 197.725 16.7505 197.728 22.376C197.729 23.8026 197.762 25.2279 198.072 26.6298C198.127 26.8814 198.2 27.1293 198.271 27.399H192.225C192.894 25.1967 192.757 22.9373 192.761 20.6918C192.771 15.4625 192.766 10.2333 192.758 5.00386C192.756 3.49805 192.693 1.99606 192.221 0.513672Z" fill="#1A1919"/><path fill-rule="evenodd" clip-rule="evenodd" d="M130.948 0.534767H136.23C136.117 1.11781 135.95 1.68683 135.907 2.26524C135.816 3.47163 135.747 4.68306 135.745 5.89244C135.731 12.9136 135.738 19.9346 135.738 26.9558V27.4101C135.62 27.4202 135.533 27.434 135.447 27.4341C134.46 27.4356 133.474 27.4443 132.488 27.4253C132.336 27.4223 132.138 27.3274 132.044 27.2094C128.822 23.1597 125.609 19.1021 122.395 15.0455C121.073 13.3767 119.743 11.7144 118.434 10.0349C117.999 9.47566 117.62 8.87192 117.199 8.26532C117.194 8.30794 117.185 8.34416 117.186 8.38011C117.214 9.83989 117.261 11.2995 117.27 12.7593C117.296 16.598 117.28 20.4371 117.339 24.2752C117.355 25.3154 117.58 26.3526 117.712 27.4081H112.548C112.667 26.7047 112.831 25.9984 112.897 25.2832C112.984 24.3379 113.031 23.3856 113.032 22.4363C113.044 16.4004 113.04 10.3647 113.03 4.32876C113.03 4.14399 112.953 3.93008 112.843 3.77963C112.109 2.77353 111.357 1.78105 110.611 0.783534C110.559 0.714636 110.514 0.641245 110.44 0.533405C110.584 0.526325 110.681 0.517611 110.778 0.517475C112.717 0.516658 114.656 0.512164 116.595 0.52578C116.747 0.52687 116.951 0.612924 117.043 0.729069C121.386 6.21719 125.724 11.7098 130.049 17.2118C130.564 17.8656 131.007 18.5752 131.479 19.2527C131.479 19.033 131.479 18.8041 131.479 18.5752C131.468 14.34 131.469 10.1049 131.439 5.86984C131.431 4.66018 131.359 3.4493 131.266 2.24291C131.222 1.6743 131.06 1.11481 130.948 0.534767Z" fill="#1A1919"/><path fill-rule="evenodd" clip-rule="evenodd" d="M93.0368 4.09303V13.4959C93.9724 13.4959 94.8909 13.5462 95.8013 13.4812C96.6426 13.4212 97.4943 13.3098 98.3073 13.0933C99.8266 12.6888 100.84 11.7117 101.166 10.1412C101.287 9.56004 101.337 8.95086 101.32 8.35733C101.258 6.20571 100.157 4.87174 98.0543 4.40362C97.3402 4.24472 96.6046 4.14464 95.8741 4.10529C94.939 4.05491 93.9992 4.09303 93.0368 4.09303ZM93.5588 27.4244H87.4911C87.597 26.9025 87.736 26.3922 87.7976 25.8727C87.8907 25.0869 87.982 24.2949 87.9837 23.5053C87.9983 17.1295 88.0003 10.7539 87.9845 4.37829C87.9813 3.08871 87.8696 1.80144 87.458 0.534866C87.5792 0.527922 87.6768 0.517574 87.7746 0.517574C90.5976 0.518255 93.4209 0.503413 96.2438 0.527514C98.0177 0.542628 99.7659 0.769064 101.457 1.34516C104.74 2.46386 106.52 5.04439 106.417 8.5097C106.365 10.2515 105.991 11.8907 105.021 13.3655C104.17 14.6604 103.032 15.6112 101.608 16.2227C101.527 16.2573 101.448 16.2958 101.317 16.3565C103.963 20.0278 106.217 23.9403 109.192 27.435H108.792C106.955 27.435 105.118 27.4283 103.281 27.4421C102.998 27.4441 102.839 27.361 102.688 27.1174C100.654 23.8383 98.6048 20.5683 96.5694 17.2899C96.4174 17.0451 96.2597 16.9736 95.9707 16.9891C95.1338 17.0341 94.2945 17.0322 93.456 17.0477C93.3233 17.0503 93.1903 17.0481 93.016 17.0481C93.016 17.207 93.0157 17.3279 93.016 17.449C93.0207 19.5439 93.0138 21.639 93.0349 23.7339C93.0473 24.9689 93.1672 26.1949 93.5588 27.4244Z" fill="#1A1919"/><path fill-rule="evenodd" clip-rule="evenodd" d="M156.872 17.0352C155.496 13.3089 154.13 9.60872 152.754 5.88484C151.41 9.61021 150.075 13.3101 148.731 17.0352H156.872ZM166.745 27.416H160.142C159.967 26.4674 159.872 25.5268 159.61 24.6352C159.232 23.3471 158.727 22.0966 158.29 20.8251C158.21 20.5922 158.05 20.6277 157.885 20.6277C155.221 20.6269 152.556 20.627 149.892 20.627C149.155 20.6272 148.417 20.6202 147.681 20.6353C147.577 20.6375 147.415 20.7241 147.382 20.8104C146.723 22.5427 146.045 24.2708 145.723 26.1075C145.649 26.5284 145.625 26.9578 145.575 27.4094H139.741C139.745 27.3827 139.74 27.3447 139.756 27.3225C141.076 25.502 141.977 23.4657 142.795 21.3903C144.912 16.0173 147.03 10.6444 149.113 5.25782C149.555 4.11393 149.876 2.91993 150.197 1.7341C150.296 1.3681 150.212 0.952672 150.212 0.517092H150.526C151.989 0.517092 153.451 0.523628 154.914 0.510784C155.169 0.50865 155.281 0.587079 155.378 0.82645C158.22 7.82092 161.064 14.8147 163.928 21.8002C164.717 23.7244 165.601 25.6073 166.745 27.416Z" fill="#1A1919"/><path fill-rule="evenodd" clip-rule="evenodd" d="M16.6785 8.3865C16.6785 8.98575 16.6783 9.67241 16.6785 10.3591C16.6794 14.4936 16.6741 18.628 16.6849 22.7624C16.689 24.3021 16.7343 25.8413 17.2054 27.3301C17.2148 27.3599 17.2026 27.3965 17.1996 27.4428H11.9297C12.0382 26.895 12.1819 26.3601 12.2433 25.8158C12.3385 24.9734 12.4294 24.125 12.4319 23.2789C12.4494 16.947 12.446 10.6152 12.4405 4.28328C12.4403 4.12942 12.3716 3.9516 12.2791 3.82592C11.5346 2.81315 10.7764 1.81046 10.0232 0.804092C9.97077 0.734105 9.92447 0.659353 9.84863 0.547428C9.98643 0.540075 10.0821 0.53068 10.178 0.530544C12.1168 0.529727 14.0556 0.531906 15.9944 0.526862C16.1871 0.526323 16.3258 0.561589 16.4568 0.727978C20.7869 6.22794 25.127 11.72 29.453 17.2231C29.9677 17.8779 30.4108 18.5887 30.8896 19.2774C30.8896 19.0645 30.8903 18.8475 30.8895 18.6305C30.8762 14.8248 30.8695 11.019 30.8457 7.21334C30.8368 5.79849 30.8243 4.38173 30.7437 2.96974C30.6976 2.16312 30.5112 1.36453 30.3861 0.549334H35.6573C35.5638 0.959997 35.4213 1.35745 35.3902 1.76348C35.2855 3.12768 35.1556 4.49474 35.1511 5.86112C35.1275 12.9067 35.14 19.9522 35.14 26.9977V27.4552C33.9759 27.4552 32.8548 27.4626 31.7342 27.4436C31.6245 27.4419 31.497 27.2949 31.4122 27.1882C29.256 24.4748 27.1038 21.7581 24.9519 19.041C22.5751 16.0399 20.194 13.0419 17.8275 10.0324C17.3956 9.48315 17.0249 8.88581 16.6785 8.3865Z" fill="#1A1919"/><path fill-rule="evenodd" clip-rule="evenodd" d="M82.35 5.13621C81.8707 4.98031 81.4267 4.81868 80.9729 4.69137C79.5564 4.29405 78.1067 4.13692 76.6386 4.13256C74.9606 4.12753 73.2825 4.12589 71.6045 4.1244C71.517 4.12426 71.4295 4.13896 71.3257 4.14822V11.192H80.1066V15.4258C77.2304 14.6053 74.2912 14.7733 71.3355 14.7533V23.7801C71.4074 23.7898 71.4823 23.8087 71.5571 23.8085C73.6206 23.802 75.6845 23.8171 77.7475 23.7787C79.6295 23.7436 81.4574 23.3844 83.2153 22.6976C83.2782 22.673 83.3417 22.6495 83.4064 22.6303C83.4243 22.6249 83.4475 22.6369 83.513 22.6493C83.2772 24.2425 83.0413 25.8369 82.8039 27.4415H65.826C65.9275 26.992 66.0709 26.5523 66.1192 26.1023C66.2193 25.1695 66.3264 24.2313 66.3297 23.2951C66.3507 17.2916 66.3467 11.288 66.3451 5.28449C66.3447 3.69004 66.3071 2.09736 65.8037 0.541992H82.35V5.13621Z" fill="#1A1919"/><path fill-rule="evenodd" clip-rule="evenodd" d="M53.2703 4.13364C53.2629 4.25646 53.253 4.34469 53.253 4.43292C53.2603 10.9695 53.262 17.506 53.2828 24.0426C53.2862 25.1181 53.4213 26.1862 53.7429 27.2217C53.7625 27.2849 53.7731 27.3509 53.7929 27.4374H47.7308C47.8372 26.916 47.9718 26.4035 48.0403 25.8824C48.1317 25.1881 48.2232 24.4872 48.2251 23.7888C48.2421 17.3429 48.2398 10.8969 48.2431 4.4509C48.2431 4.36157 48.2431 4.27225 48.2431 4.13745C45.359 4.09633 42.4965 4.01613 39.7451 5.15907V0.552734H61.7587V5.16138C59.0243 4.01886 56.1649 4.10014 53.2703 4.13364Z" fill="#1A1919"/><path fill-rule="evenodd" clip-rule="evenodd" d="M6.05618 27.4422H0C0.636145 25.3309 0.537292 23.1743 0.540424 21.028C0.547641 16.0458 0.546007 11.0633 0.539743 6.08107C0.538518 5.15313 0.540288 4.22179 0.464718 3.29834C0.389285 2.37898 0.218266 1.46738 0.0883687 0.546387H6.04447C5.50391 2.33568 5.50691 4.15888 5.5065 5.98126C5.50527 10.9296 5.50364 15.878 5.50786 20.8262C5.50881 21.9357 5.52079 23.0453 5.55034 24.1542C5.58002 25.2635 5.71033 26.3615 6.05618 27.4422Z" fill="#1A1919"/></svg>